<svg width="280" height="231" viewBox="0 0 280 231" fill="none" xmlns="http://www.w3.org/2000/svg">
<path d="M278.765 230.482L279.751 230.463C279.37 219.496 278.2 208.571 276.25 197.771C271.985 174.65 264.892 159.466 255.17 152.639L254.603 153.446C277.315 169.393 278.754 229.873 278.765 230.482Z" fill="#2F2E41"/>
<path d="M266.435 230.246L267.422 230.227C267.401 229.135 266.784 203.391 256.649 196.275L256.083 197.082C265.809 203.911 266.431 229.984 266.435 230.246Z" fill="#2F2E41"/>
<path d="M248.992 153.536C251.715 153.536 253.924 151.327 253.924 148.604C253.924 145.88 251.715 143.672 248.992 143.672C246.268 143.672 244.06 145.88 244.06 148.604C244.06 151.327 246.268 153.536 248.992 153.536Z" fill="#004D61"/>
<path d="M251.434 195.95C254.158 195.95 256.366 193.742 256.366 191.018C256.366 188.294 254.158 186.086 251.434 186.086C248.71 186.086 246.502 188.294 246.502 191.018C246.502 193.742 248.71 195.95 251.434 195.95Z" fill="#004D61"/>
<path d="M268.734 156.492C267.807 162.412 270.223 167.707 270.223 167.707C270.223 167.707 274.142 163.404 275.069 157.484C275.995 151.563 273.58 146.268 273.58 146.268C273.58 146.268 269.661 150.572 268.734 156.492Z" fill="#2F2E41"/>
<path d="M252.613 170.87C258.281 172.814 263.916 171.358 263.916 171.358C263.916 171.358 260.362 166.75 254.693 164.806C249.025 162.861 243.39 164.318 243.39 164.318C243.39 164.318 246.945 168.926 252.613 170.87Z" fill="#2F2E41"/>
<path d="M252.431 208.432C254.997 209.238 257.729 209.356 260.354 208.774C258.687 206.652 256.442 205.057 253.889 204.181C251.337 203.306 248.585 203.187 245.967 203.839C247.682 205.91 249.911 207.493 252.431 208.432Z" fill="#2F2E41"/>
<path d="M81.365 40.7273C82.4346 40.4813 84.2919 40.6864 87.238 42.866L87.8416 43.3279C91.1668 45.9616 95.4935 50.209 99.0007 53.8123C100.751 55.6109 102.293 57.244 103.397 58.4275C103.949 59.0192 104.392 59.4987 104.696 59.8298C104.848 59.9953 104.966 60.1237 105.046 60.2107C105.085 60.254 105.115 60.2871 105.135 60.3093C105.146 60.3203 105.153 60.3291 105.158 60.3347L105.166 60.3425L105.226 60.4089L105.305 60.45L137.102 76.9851L137.298 77.0857L137.504 77.0115C138.237 76.7459 139.024 76.6671 139.793 76.78L140.121 76.8406C140.992 77.0323 141.791 77.4669 142.425 78.0945C143.058 78.7222 143.502 79.5172 143.702 80.3865C143.902 81.2556 143.851 82.1641 143.555 83.0056C143.26 83.8472 142.731 84.588 142.032 85.1414C141.42 85.6253 140.699 85.9485 139.934 86.0847L139.603 86.1316C138.716 86.2253 137.821 86.0655 137.021 85.6707C136.221 85.2758 135.55 84.6624 135.085 83.9011L134.997 83.7576L134.841 83.696L102.036 70.8464L83.7458 55.3572L77.1609 46.2L79.8113 41.7839L79.8181 41.7722L79.823 41.7605C79.8239 41.761 79.824 41.7614 79.824 41.7615L79.823 41.7625V41.7634L79.8328 41.7458C79.8435 41.7283 79.8624 41.6992 79.8894 41.6619C79.9434 41.587 80.03 41.4798 80.1531 41.363C80.3985 41.1303 80.7896 40.8597 81.365 40.7273Z" stroke="#DEE9EA"/>
<path d="M46.7668 49.8248C46.9368 49.8203 47.0741 49.8345 47.1653 49.8492C47.2105 49.8565 47.2439 49.864 47.2639 49.8688C47.2718 49.8707 47.278 49.8718 47.2815 49.8727L47.3069 49.8805L52.303 51.1285L54.1223 62.2604L52.1409 86.1471L38.0315 118.428L37.9641 118.583L38.0042 118.748C38.2167 119.617 38.1774 120.529 37.8918 121.378C37.6419 122.12 37.2122 122.787 36.6428 123.32L36.3899 123.541C35.7815 124.034 35.0613 124.367 34.2952 124.512L33.9641 124.563C33.1861 124.654 32.3993 124.551 31.6741 124.264L31.3674 124.13C30.6612 123.79 30.0521 123.282 29.593 122.651L29.4055 122.374C28.9905 121.709 28.7479 120.954 28.6975 120.175L28.6877 119.84C28.6926 119.057 28.8919 118.289 29.2659 117.604L29.4368 117.317C29.9205 116.564 30.6085 115.963 31.4202 115.586L31.6204 115.492L31.6868 115.282L42.4788 81.1071L42.5051 81.0211L42.5012 80.9323V80.9205C42.5009 80.913 42.5 80.902 42.4993 80.8873C42.4979 80.8573 42.4961 80.8123 42.4934 80.7535C42.4881 80.6358 42.4804 80.4615 42.4709 80.2369C42.452 79.7876 42.4258 79.1355 42.3977 78.3268C42.3415 76.7093 42.2763 74.4644 42.2424 71.9547C42.1788 67.2409 42.2242 61.6179 42.6331 57.4615L42.72 56.651C43.2051 52.4706 44.4689 50.8522 45.4612 50.2311C45.9614 49.918 46.4288 49.8338 46.7668 49.8248Z" stroke="#DEE9EA"/>
<path d="M108.292 197.536L105.106 223.365H99.0933L99.0913 197.536H108.292Z" stroke="#DEE9EA"/>
<path d="M96.8184 221.594L110.517 221.593H110.517C112.832 221.594 115.053 222.513 116.69 224.15C118.327 225.787 119.247 228.008 119.247 230.323V230.607L96.8188 230.607L96.8184 221.594Z" fill="#2F2E41"/>
<path d="M32.4255 197.536L29.24 223.365H23.2263L23.2253 197.536H32.4255Z" stroke="#DEE9EA"/>
<path d="M20.9521 221.594L34.6505 221.593H34.651C36.9662 221.594 39.1865 222.513 40.8236 224.15C42.4607 225.787 43.3805 228.008 43.3806 230.323V230.607L20.9526 230.607L20.9521 221.594Z" fill="#2F2E41"/>
<path d="M57.0654 39.2347L45.5284 49.0833L54.9965 79.0457L57.1329 85.7364C57.1329 85.7364 44.088 97.7638 36.0167 131.362C27.9453 164.96 14.7415 209.605 14.7415 209.605L42.6125 217.583L65.2874 141.58L91.9585 201.206L95.0378 218.842L118.773 211.844L113.174 167.614L85.1802 91.0512L88.0881 70.7557C88.0881 70.7557 92.4548 60.6255 84.8688 49.9004L82.4894 39.8227L73.9654 37.7231L57.0654 39.2347Z" fill="#2F2E41"/>
<path d="M60.6355 0.5C65.1356 0.5 69.4576 2.23174 72.7097 5.32617L73.0212 5.62988C76.306 8.91468 78.152 13.3702 78.1521 18.0156V31.4609C78.1514 31.9061 77.9963 32.3354 77.7166 32.6768L77.5886 32.8174C77.2286 33.1774 76.7404 33.3803 76.2312 33.3809H45.0408C44.5953 33.3804 44.1656 33.2252 43.824 32.9453L43.6833 32.8174C43.3684 32.5024 43.1738 32.0897 43.1296 31.6504L43.1199 31.46V18.0156L43.1257 17.5811C43.2335 13.238 44.9512 9.08865 47.946 5.94141L48.2498 5.62988C51.5346 2.34508 55.9901 0.500094 60.6355 0.5Z" stroke="#DEE9EA"/>
<path d="M75.9281 26.6946C79.4272 20.2936 77.0747 12.268 70.6737 8.76893C64.2727 5.26983 56.2471 7.62227 52.748 14.0233C49.2489 20.4242 51.6014 28.4499 58.0024 31.949C64.4034 35.4481 72.429 33.0956 75.9281 26.6946Z" fill="#004D61"/>
<path d="M69.9362 26.8664C70.262 26.7404 70.5597 26.5388 70.8092 26.275C70.9743 26.0869 71.1001 25.8612 71.178 25.6137C71.2559 25.3662 71.2839 25.1029 71.26 24.8422C71.2461 24.6564 71.1936 24.4766 71.1064 24.317C71.0193 24.1573 70.9 24.0221 70.7578 23.9219C70.3888 23.6711 69.9012 23.6805 69.4089 23.9328L69.3521 19.5331L68.9523 19.5394L69.0191 24.7117L69.3234 24.4911C69.6763 24.2356 70.1834 24.0504 70.5483 24.2984C70.6385 24.3641 70.7138 24.4519 70.7684 24.555C70.8229 24.6581 70.8552 24.7737 70.8627 24.8928C70.8795 25.0871 70.8583 25.283 70.8005 25.4673C70.7427 25.6517 70.6496 25.8201 70.5276 25.9611C70.0942 26.4365 69.4527 26.5958 68.7205 26.7415L68.7913 27.1765C69.1805 27.1111 69.5637 27.0074 69.9362 26.8664Z" fill="#DEE9EA"/>
<path d="M76.2909 20.3824L72.835 20.9058L72.9321 21.5474L76.388 21.024L76.2909 20.3824Z" fill="#DEE9EA"/>
<path d="M58.6266 20.3824L62.0825 20.9058L61.9854 21.5474L58.5294 21.024L58.6266 20.3824Z" fill="#DEE9EA"/>
<path d="M68.6616 5.34009L69.0034 5.34497C72.412 5.43329 75.6672 6.78348 78.1372 9.13403L78.3813 9.37231C80.9048 11.8958 82.3468 15.2984 82.4106 18.8606H64.3062L64.144 16.5862L63.1743 16.4543L62.3149 18.8606H60.1958L59.8413 13.8977L58.8726 13.7649L57.0522 18.8606H52.2251C52.2869 15.4121 53.6402 12.113 56.0161 9.61646L56.2544 9.37231C58.7518 6.87488 62.1103 5.43631 65.6323 5.34497L65.9741 5.34009H68.6616Z" stroke="#DEE9EA"/>
<path d="M179.184 157.399L56.7842 200.674C53.7579 201.74 50.4323 201.562 47.5369 200.18C44.6415 198.797 42.4129 196.322 41.3399 193.298L20.3134 133.827C19.2473 130.801 19.4251 127.475 20.8079 124.58C22.1907 121.684 24.6655 119.456 27.6894 118.383L150.089 75.1073C153.115 74.0412 156.441 74.219 159.336 75.6018C162.232 76.9846 164.46 79.4594 165.533 82.4833L186.56 141.954C187.626 144.981 187.448 148.306 186.065 151.202C184.683 154.097 182.208 156.326 179.184 157.399Z" fill="white"/>
<path d="M186.56 141.954L186.671 142.269C187.692 145.159 187.524 148.337 186.202 151.102C184.881 153.868 182.515 155.996 179.625 157.017L56.613 200.509C53.7235 201.53 50.5466 201.362 47.7811 200.041C45.0156 198.721 42.888 196.355 41.8661 193.466L41.7549 193.151L186.56 141.954Z" fill="#F2F2F2"/>
<path d="M49.1459 132.191C41.0326 137.529 30.6344 133.512 26.9978 127.66L27.5776 127.33C34.4847 123.025 44.7422 125.423 49.1459 132.191Z" fill="#004D61"/>
<path d="M150.817 147.337C148.831 148.039 147.043 148.007 145.502 147.241C142.018 145.511 140.384 140.379 139.071 136.255C138.688 135.056 138.328 133.923 137.96 132.997L137.955 132.982C137.315 131.145 137.427 129.13 138.265 127.374C139.102 125.619 140.599 124.265 142.43 123.606L158.894 117.785C160.877 117.084 162.663 117.116 164.203 117.88C167.685 119.609 169.321 124.739 170.636 128.861C171.019 130.063 171.381 131.198 171.75 132.126C172.393 133.965 172.283 135.983 171.446 137.742C170.608 139.501 169.11 140.858 167.276 141.517L150.817 147.337ZM138.645 132.733C139.021 133.681 139.384 134.824 139.769 136.033C141.041 140.024 142.623 144.992 145.828 146.584C147.204 147.268 148.756 147.288 150.572 146.646L167.031 140.826C168.68 140.234 170.028 139.014 170.783 137.433C171.538 135.852 171.638 134.037 171.063 132.382C170.69 131.445 170.324 130.298 169.937 129.084C168.664 125.094 167.081 120.128 163.877 118.537C162.502 117.855 160.952 117.835 159.138 118.477L142.675 124.297C141.028 124.89 139.682 126.108 138.927 127.687C138.173 129.266 138.071 131.08 138.645 132.733Z" fill="#3F3D56"/>
<path d="M45.7335 134.113C42.8404 135.116 39.7239 135.287 36.7384 134.607C32.3783 133.65 28.4213 131.047 26.4119 127.814L26.2104 127.49L27.1154 126.975C34.1264 122.609 44.6396 124.976 49.1776 131.948L49.3765 132.254L49.0719 132.454C48.0303 133.14 46.9093 133.697 45.7335 134.113ZM27.2422 127.747C29.2088 130.669 32.8682 133.006 36.8957 133.891C40.8107 134.805 44.9284 134.141 48.357 132.041C43.918 125.62 34.0834 123.491 27.4973 127.602L27.2422 127.747Z" fill="#3F3D56"/>
<path d="M50.0336 176.797C49.0058 177.204 47.8866 177.324 46.7961 177.142C45.7056 176.961 44.685 176.487 43.8438 175.77C42.8592 174.909 42.1128 173.809 41.6765 172.577C41.2402 171.344 41.1288 170.02 41.3529 168.731C41.5611 167.623 42.0721 166.594 42.8293 165.758C43.5865 164.922 44.5604 164.312 45.643 163.995L67.5795 156.24C68.6205 155.808 69.7605 155.672 70.8737 155.848C71.987 156.023 73.0302 156.502 73.8885 157.232C74.8725 158.093 75.6183 159.193 76.0541 160.426C76.4898 161.658 76.6007 162.982 76.3762 164.27C75.943 166.534 74.4147 168.202 72.0852 169L50.1483 176.756C50.1101 176.77 50.0718 176.784 50.0336 176.797ZM45.7795 164.724C44.8435 165.013 44.0039 165.552 43.3509 166.282C42.6979 167.012 42.2563 167.906 42.0734 168.869C41.8715 170.029 41.9719 171.223 42.365 172.333C42.758 173.444 43.4305 174.434 44.3175 175.209C45.0779 175.854 46.0019 176.275 46.9871 176.426C47.9722 176.577 48.98 176.453 49.8986 176.066L71.8459 168.307C72.8042 168.03 73.6674 167.494 74.3399 166.757C75.0123 166.021 75.4677 165.112 75.6558 164.133C75.8581 162.972 75.7581 161.779 75.3656 160.669C74.973 159.558 74.301 158.567 73.4144 157.792C72.6528 157.148 71.7285 156.727 70.743 156.575C69.7575 156.423 68.7491 156.545 67.8288 156.929L45.8802 164.689C45.8466 164.701 45.8128 164.712 45.7795 164.724L45.7795 164.724Z" fill="#3F3D56"/>
<path d="M150.963 129.839L144.048 132.284C143.59 132.446 143.086 132.42 142.647 132.21C142.208 132 141.87 131.625 141.708 131.167C141.546 130.708 141.573 130.204 141.782 129.765C141.992 129.326 142.367 128.989 142.826 128.827L149.741 126.382C150.199 126.219 150.704 126.246 151.142 126.456C151.581 126.665 151.919 127.041 152.081 127.499C152.243 127.958 152.216 128.462 152.007 128.901C151.797 129.34 151.422 129.677 150.963 129.839Z" fill="#004D61"/>
<path d="M152.919 135.371L146.004 137.816C145.545 137.978 145.041 137.952 144.603 137.742C144.164 137.533 143.826 137.157 143.664 136.699C143.502 136.24 143.529 135.736 143.738 135.297C143.948 134.858 144.323 134.521 144.782 134.359L151.697 131.914C152.155 131.752 152.659 131.778 153.098 131.988C153.537 132.197 153.875 132.573 154.037 133.031C154.199 133.49 154.172 133.994 153.963 134.433C153.753 134.872 153.378 135.209 152.919 135.371Z" fill="#004D61"/>
<path d="M154.875 140.904L147.96 143.349C147.733 143.429 147.492 143.464 147.252 143.451C147.011 143.438 146.776 143.378 146.559 143.274C146.341 143.171 146.147 143.025 145.986 142.846C145.824 142.667 145.7 142.458 145.62 142.231C145.54 142.004 145.505 141.763 145.518 141.523C145.53 141.282 145.59 141.047 145.694 140.829C145.798 140.612 145.944 140.417 146.123 140.256C146.302 140.095 146.511 139.971 146.738 139.891L153.653 137.446C153.88 137.366 154.12 137.331 154.361 137.344C154.601 137.356 154.837 137.416 155.054 137.52C155.272 137.624 155.466 137.769 155.627 137.948C155.788 138.127 155.913 138.336 155.993 138.563C156.073 138.791 156.108 139.031 156.095 139.272C156.082 139.512 156.022 139.748 155.919 139.965C155.815 140.182 155.669 140.377 155.49 140.538C155.311 140.699 155.102 140.823 154.875 140.904Z" fill="#004D61"/>
<path d="M163.065 125.561L156.15 128.006C155.923 128.086 155.682 128.121 155.442 128.108C155.201 128.095 154.966 128.035 154.748 127.931C154.531 127.828 154.336 127.682 154.175 127.503C154.014 127.324 153.89 127.115 153.81 126.888C153.729 126.661 153.695 126.42 153.707 126.18C153.72 125.939 153.78 125.704 153.884 125.487C153.988 125.269 154.133 125.075 154.312 124.914C154.491 124.752 154.7 124.628 154.927 124.548L161.843 122.103C162.301 121.941 162.805 121.968 163.244 122.177C163.683 122.387 164.02 122.762 164.183 123.221C164.345 123.679 164.318 124.183 164.108 124.622C163.899 125.061 163.523 125.399 163.065 125.561Z" fill="#004D61"/>
<path d="M165.021 131.093L158.106 133.538C157.879 133.618 157.638 133.653 157.398 133.64C157.157 133.627 156.922 133.567 156.704 133.464C156.487 133.36 156.292 133.214 156.131 133.035C155.97 132.856 155.846 132.647 155.766 132.42C155.685 132.193 155.651 131.953 155.663 131.712C155.676 131.472 155.736 131.236 155.84 131.019C155.944 130.801 156.089 130.607 156.268 130.446C156.447 130.285 156.656 130.16 156.883 130.08L163.799 127.635C164.026 127.555 164.266 127.52 164.507 127.533C164.747 127.546 164.983 127.606 165.2 127.709C165.417 127.813 165.612 127.959 165.773 128.138C165.934 128.317 166.058 128.526 166.139 128.753C166.219 128.98 166.254 129.22 166.241 129.461C166.228 129.701 166.168 129.937 166.064 130.154C165.961 130.372 165.815 130.566 165.636 130.727C165.457 130.888 165.248 131.013 165.021 131.093Z" fill="#004D61"/>
<path d="M166.977 136.625L160.062 139.07C159.603 139.232 159.099 139.205 158.66 138.996C158.221 138.786 157.884 138.411 157.722 137.952C157.559 137.494 157.586 136.99 157.796 136.551C158.005 136.112 158.381 135.774 158.839 135.612L165.754 133.167C165.981 133.087 166.222 133.052 166.462 133.065C166.703 133.078 166.939 133.138 167.156 133.242C167.373 133.345 167.568 133.491 167.729 133.67C167.89 133.849 168.014 134.058 168.094 134.285C168.175 134.512 168.209 134.753 168.197 134.993C168.184 135.234 168.124 135.469 168.02 135.686C167.917 135.904 167.771 136.098 167.592 136.26C167.413 136.421 167.204 136.545 166.977 136.625Z" fill="#004D61"/>
<path d="M170.112 95.4287L25.3064 146.626L25.5509 147.318L170.356 96.1202L170.112 95.4287Z" fill="#3F3D56"/>
<path d="M179.184 157.399L56.7842 200.674C53.7579 201.74 50.4323 201.562 47.5369 200.18C44.6415 198.797 42.4129 196.322 41.3399 193.298L20.3134 133.827C19.2473 130.801 19.4251 127.475 20.8079 124.58C22.1907 121.684 24.6655 119.456 27.6894 118.383L150.089 75.1073C153.115 74.0412 156.441 74.219 159.336 75.6018C162.232 76.9846 164.46 79.4594 165.533 82.4833L186.56 141.954C187.626 144.981 187.448 148.306 186.065 151.202C184.683 154.097 182.208 156.326 179.184 157.399ZM27.9339 119.074C25.0933 120.082 22.7684 122.176 21.4695 124.896C20.1705 127.616 20.0034 130.74 21.0049 133.583L42.0315 193.054C43.0394 195.894 45.133 198.219 47.8529 199.518C50.5727 200.817 53.6968 200.984 56.5397 199.983L178.939 156.707C181.78 155.699 184.105 153.606 185.404 150.886C186.703 148.166 186.87 145.042 185.868 142.199L164.842 82.7278C163.834 79.8872 161.74 77.5624 159.02 76.2634C156.301 74.9644 153.176 74.7974 150.334 75.7989L27.9339 119.074Z" fill="#3F3D56"/>
<path d="M279.621 231H0.37889C0.278402 231 0.18203 230.947 0.110974 230.854C0.0399184 230.76 0 230.633 0 230.5C0 230.367 0.0399184 230.24 0.110974 230.146C0.18203 230.053 0.278402 230 0.37889 230H279.621C279.722 230 279.818 230.053 279.889 230.146C279.96 230.24 280 230.367 280 230.5C280 230.633 279.96 230.76 279.889 230.854C279.818 230.947 279.722 231 279.621 231Z" fill="#444444"/>
</svg>
